<svg xmlns="http://www.w3.org/2000/svg" width="374" height="274" fill="none" viewBox="0 0 374 274">
  <path fill="#000000" d="M152 238.355 187.355 203l35.356 35.355-35.356 35.355zm50-50L237.355 153l35.356 35.355-35.356 35.355zm-151-53L86.355 100l35.356 35.355-35.356 35.355zm100-100L186.355 0l35.356 35.355-35.356 35.356L151 35.355Zm-50 50L136.355 50l35.356 35.355-35.356 35.355zm0 103L136.355 153l35.356 35.355-35.356 35.355zm-101-105L35.355 48l35.356 35.355-35.356 35.355zm0 103L35.355 151l35.356 35.355-35.356 35.355zm253-48L288.355 103l35.356 35.355-35.356 35.355zm50-50L338.355 53l35.356 35.355-35.356 35.355zm0 103L338.355 156l35.356 35.355-35.356 35.355zm-102-103L236.355 53l35.356 35.355-35.356 35.356L201 88.355Z"/>
</svg>
